<svg xmlns="http://www.w3.org/2000/svg" width="68" height="74" viewBox="0 0 68 74">
  <g fill="none">
    <path fill="#76C9F2" d="M40.604127,4.52113336 L7.54015873,0.490498442 C5.53825355,0.222165624 3.52894272,0.92894207 2.13586618,2.39146201 C0.742789631,3.85398195 0.134517126,5.8952726 0.49984127,7.88176828 L10.2414286,60.0779588 C10.4896397,61.3648361 11.2661519,62.4886408 12.3820542,63.1759719 C13.4979566,63.8633031 14.8509603,64.0511568 16.1119048,63.6938318 L43.2415873,55.7389111 C45.5499167,55.0209891 47.0835096,52.8363839 46.9744444,50.4214508 L46.3469841,10.4873238 C46.1160436,7.37654131 43.7038404,4.87053019 40.604127,4.52113336 Z" opacity=".4"/>
    <path fill="#E0C8C3" d="M61.1720635,61.1946254 C61.1720635,61.1946254 61.3315873,49.7727207 58.9174603,44.7211334 L55.5461905,44.5403397 L32.968254,30.8744667 L35.4674603,56.2281175 C39.6736408,59.8569481 44.3183556,62.943897 49.2928571,65.4166889 L53,74 L68,74 L61.1720635,61.1946254 Z"/>
    <polygon fill="#CCA19A" points="49.474 40.467 49.591 43.636 54.578 43.892"/>
    <path fill="#E0C8C3" d="M30.15,26.8012921 C29.1531148,27.5152924 28.5534564,28.6593774 28.5334921,29.8854191 C30.1159659,31.7207178 31.8996412,33.3724012 33.8509524,34.8093873 C34.8529659,33.5340166 35.6265636,32.0947651 36.1374603,30.5554191 C34.3919263,28.9432931 32.3615131,27.6702276 30.15,26.8012921 Z"/>
    <path fill="#CCA19A" d="M36.8074603,57.4617683 C37.9560317,58.4614508 41.4336508,60.7798635 41.4336508,60.7798635 L43.4968254,58.1317683 L49.8777778,59.0782762 C51.4878549,58.4474006 52.8626455,57.3327055 53.8126984,55.8878 C52.4617582,54.2120243 51.6399133,52.1722201 51.451746,50.0279588 L36.8074603,57.4617683 Z"/>
    <path fill="#58595B" d="M48.1868254,12.0081175 L35.4993651,10.8063715 C34.5605446,10.7773559 33.6547049,11.1540711 33.0133171,11.8402543 C32.3719292,12.5264375 32.0571316,13.4556105 32.1493651,14.3903397 L36.4033333,55.5900223 C36.5015249,56.5198792 37.002673,57.3598593 37.7743074,57.8879274 C38.5459418,58.4159955 39.5103837,58.5789921 40.4126984,58.3338318 L48.6015873,55.4730381 C49.6302404,55.2105074 50.3296404,54.2571852 50.2712698,53.1971651 L50.3669841,14.0712921 C50.2914236,12.9401368 49.3729316,12.0491995 48.24,12.0081175"/>
    <path fill="#2B2B2B" d="M51.5049206,53.1333556 L51.6006349,14.0074826 C51.4800742,12.2404428 50.0319682,10.856902 48.2612698,10.8170064 L35.5312698,9.55145082 C34.325399,9.47871477 33.1422326,9.90225885 32.2564716,10.7237469 C31.3707107,11.5452349 30.8594062,12.693207 30.8412698,13.9011334 C30.8255076,14.1099898 30.8255076,14.3197372 30.8412698,14.5285937 L35.0952381,55.7176413 C35.2029895,56.7986371 35.7113506,57.8001845 36.5203175,58.5252603 C37.300044,59.2418566 38.3119305,59.6534075 39.3704762,59.6844667 C39.7963399,59.7055925 40.2229597,59.662572 40.6360317,59.5568476 L48.8249206,56.6854191 C50.3669841,56.0685937 51.4836508,55.1008159 51.4411111,53.4949429 C51.5049206,53.346054 51.5155556,53.2397048 51.5049206,53.1333556 Z"/>
    <path fill="#3A588A" d="M50.6434921,53.2078 L50.781746,14.358435 C50.7562999,13.1364974 49.8613281,12.1072799 48.6547619,11.9124032 L46.9106349,11.6890699 C46.6562976,11.6890042 46.4484788,11.8920998 46.4426984,12.1463715 L46.4426984,12.2527207 C46.4035374,12.8108152 45.9386714,13.2431405 45.3792063,13.2417683 L38.2857143,12.5398635 C37.8180327,12.5930691 37.3877896,12.2784827 37.2966667,11.8166889 L37.2966667,11.4976413 C37.2908692,11.1846329 37.035443,10.9339368 36.722381,10.9339905 L35.0952381,10.7957365 C33.8424888,10.7656561 32.7967725,11.7451279 32.7449206,12.9971651 C32.734671,13.1032674 32.734671,13.2101105 32.7449206,13.3162127 L37.2222222,56.5046254 C37.3469548,57.6410709 38.2815127,58.5169367 39.4236508,58.5678 C39.642361,58.5745973 39.8608958,58.5495195 40.072381,58.4933556 C42.8693651,57.6531969 49.0801587,55.3773238 49.0801587,55.3773238 C49.9869985,55.1441236 50.6346756,54.345322 50.6753968,53.4098635 L50.6753968,53.2078"/>
    <path fill="#141414" d="M44.22 12.1357365L41.0295238 11.8273238C40.9472948 11.8273238 40.8806349 11.760664 40.8806349 11.678435 40.8806349 11.5962059 40.9472948 11.5295461 41.0295238 11.5295461L44.22 11.8379588C44.3039354 11.8490068 44.3646219 11.9236979 44.358254 12.0081175 44.3448314 12.0761994 44.2889365 12.1277947 44.22 12.1357365zM39.8384127 11.5295461C39.8384127 11.7174982 39.6860474 11.8698635 39.4980952 11.8698635 39.3101431 11.8698635 39.1577778 11.7174982 39.1577778 11.5295461 39.1605547 11.4392734 39.1991011 11.3538067 39.2649273 11.29197 39.3307535 11.2301332 39.4184602 11.1969985 39.5087302 11.1998635 39.6908088 11.1998635 39.8384127 11.3474674 39.8384127 11.5295461z"/>
    <path fill="#545454" d="M48.112381,11.0722445 L35.4568254,9.80668892 C35.4003962,9.80379674 35.3451352,9.82347624 35.303236,9.86138503 C35.2613368,9.89929382 35.2362432,9.95231616 35.2334921,10.0087524 C35.2383049,10.1201531 35.3245479,10.2109352 35.4355556,10.2214508 L48.0911111,11.4444667 C48.1763862,11.4639011 48.2648653,11.4291535 48.3141264,11.356884 C48.3633874,11.2846146 48.3633874,11.1895569 48.3141264,11.1172875 C48.2648653,11.045018 48.1763862,11.0102704 48.0911111,11.0297048"/>
    <path fill="#4F4F4F" d="M48.771746,56.0366889 L48.7079365,56.0366889 L40.4126984,58.9293873 C40.3580602,58.9417588 40.3110103,58.9762582 40.2827828,59.0246482 C40.2545553,59.0730382 40.247684,59.1309752 40.2638095,59.1846254 C40.2833347,59.2754989 40.3623334,59.3413312 40.4552381,59.3441492 L40.5190476,59.3441492 L48.8142857,56.4195461 C48.9245587,56.3884532 48.9903888,56.2756017 48.9631746,56.164308 C48.9436495,56.0734345 48.8646507,56.0076022 48.771746,56.0047842"/>
    <path fill="#636363" d="M31.755873,15.5176413 C31.6738979,15.5256784 31.5985438,15.5661725 31.546603,15.6300995 C31.4946623,15.6940266 31.4704512,15.7760744 31.4793651,15.8579588 L35.5312698,55.2071651 C35.5424478,55.3632635 35.6725501,55.4840727 35.8290476,55.483673 C36.0011846,55.4668188 36.1285443,55.315874 36.1161905,55.1433556 L32.0642857,15.7941492 C32.0478796,15.6363857 31.9144851,15.5167905 31.755873,15.5176413"/>
    <path fill="#E0C8C3" d="M30.947619,53.1865302 C30.904937,52.16109 31.0826352,51.1384189 31.4687302,50.1874826 C31.4687302,50.1874826 35.9034921,51.8890699 37.8496825,54.1117683 C37.7966926,55.0020738 37.3529215,55.8234396 36.6373016,56.3557365 C34.5803535,55.617231 32.6583257,54.5466436 30.947619,53.1865302 Z"/>
    <path fill="#ECD7D5" d="M35.0952381,55.1752603 C35.2421413,54.4543029 35.6146004,53.7987749 36.1587302,53.3035143 C36.7045494,53.4958696 37.1916613,53.8254942 37.5731746,54.2606572 C37.4622316,54.9198639 37.1630793,55.5329413 36.711746,56.026054 C36.126845,55.840263 35.5795326,55.5522038 35.0952381,55.1752603 Z"/>
    <path fill="#CCA19A" d="M32.16,50.8787524 C32.1335693,50.4852442 32.3539146,50.1165896 32.7130159,49.9535143 C34.1821755,50.9041157 35.5727191,51.971029 36.8712698,53.1439905 C36.5347187,53.324459 36.1776477,53.4637167 35.8077778,53.5587524 C34.4658981,52.8509047 33.2365658,51.9477218 32.16,50.8787524 Z"/>
    <polygon fill="#E0C8C3" points="34.34 47.433 33.925 43.498 30.735 44.434"/>
    <polygon fill="#CCA19A" points="34.319 47.231 34.17 45.763 32.234 45.87"/>
    <path fill="#E0C8C3" d="M29.4268254,48.794308 C29.4268254,48.794308 29.075873,45.9866889 30.7242857,44.4339905 C30.7242857,44.4339905 36.041746,47.7733556 38.1049206,50.9425619 C37.7109767,51.9344905 37.0342067,52.7887739 36.1587302,53.3992286 C33.7332005,52.1481571 31.4720104,50.601403 29.4268254,48.794308 Z"/>
    <path fill="#ECD7D5" d="M34.3188889,51.5700223 C34.5627394,50.7170014 35.0826341,49.9689515 35.7971429,49.4430381 C36.4838654,49.8478891 37.0722735,50.3999756 37.52,51.0595461 C37.2162097,51.7970496 36.7159439,52.4370956 36.0736508,52.9100223 C35.4258078,52.5523984 34.8344771,52.1008368 34.3188889,51.5700223 Z"/>
    <path fill="#E0C8C3" d="M33.4468254,39.010181 L33.1171429,35.9792286 C32.368574,36.0489596 31.628063,36.1878054 30.9050794,36.3939905 L33.4468254,39.010181 Z"/>
    <path fill="#CCA19A" d="M33.4468254,39.010181 L33.2873016,37.531927 C33.2873016,37.531927 32.3939683,37.4787524 31.7665079,37.531927 L33.4468254,39.010181 Z"/>
    <path fill="#E0C8C3" d="M28.1719048,40.4139905 C28.4632509,38.7436101 29.4588934,37.279202 30.9050794,36.3939905 C32.919196,37.8071691 34.6236677,39.616587 35.914127,41.7114508 C35.5644911,42.8026508 34.8981326,43.7651686 33.9998413,44.4765302 C31.9101262,43.3465956 29.955034,41.9837394 28.1719048,40.4139905 Z"/>
    <path fill="#ECD7D5" d="M31.8196825,42.4878 C31.8196825,42.4878 31.755873,41.424308 33.6063492,39.9141492 C34.3575885,40.3868051 34.9732308,41.0464218 35.3930159,41.828435 C35.0033989,42.6119826 34.4567824,43.3070181 33.7871429,43.8703397 C33.0882259,43.4740928 32.4293297,43.0110847 31.8196825,42.4878 Z"/>
    <path fill="#E0C8C3" d="M58.9174603,44.7211334 C55.4462189,43.5267214 51.8552847,42.7136797 48.2080952,42.2963715 C46.1602586,44.2256782 43.9742886,46.0028895 41.667619,47.6138318 C42.1126881,49.0345577 43.3743231,50.0438657 44.8580952,50.1662127 C46.7523327,49.5335007 48.5437958,48.6270204 50.1755556,47.4755778 C51.3129758,48.3067034 52.3232648,49.2990794 53.1746032,50.4214508"/>
    <path fill="#ECD7D5" d="M42.1674603,47.5500223 C42.1674603,47.5500223 43.018254,49.1027207 44.2944444,49.1665302 C45.1285817,48.7169409 45.8237095,48.0475586 46.3044444,47.2309746 L44.4220635,45.848435 C44.4220635,45.848435 43.2096825,46.7098635 42.1674603,47.5500223 Z"/>
    <polygon fill="#EFF0F0" points="54.568 16.496 55.823 17.751 60.513 14.103 57.343 11.593"/>
    <polygon fill="#EFF0F0" points="57.343 25.164 57.258 27.365 65.288 29.715 66.362 24.759"/>
    <polygon fill="#EFF0F0" points="56.493 34.852 55.291 36.064 58.513 41.371 61.459 38.532"/>
    <polygon fill="#FFFFFF" points="24.567 26.493 17.633 25.249 17.452 28.216 24.513 28.088"/>
    <polygon fill="#FFFFFF" points="27.066 20.335 28.161 19.506 25.396 14.241 22.737 16.06"/>
    <polygon fill="#FFFFFF" points="26.364 35.798 25.471 34.948 21.419 37.149 22.971 39.255"/>
    <polygon fill="#FFFFFF" points="44.667 32.693 43.178 33.81 41.593 32.874 41.497 31.225 43.05 31.151 44.592 31.087"/>
    <polygon fill="#67BAE8" points="42.795 26.418 38.254 29.896 38.786 36.607 43.295 36.181 47.815 35.767 47.666 29.375"/>
    <polygon fill="#FFFFFF" points="44.667 32.693 43.178 33.81 41.593 32.874 41.497 31.268 44.592 31.087"/>
  </g>
</svg>
