<svg xmlns="http://www.w3.org/2000/svg" viewBox="0 0 763.96 867.35"><defs><clipPath id="a" transform="translate(436 -72.03)"><path d="M41.46 162.7a143.75 143.75 0 0 0-6.34 15.83 270 270 0 0 1 35.17-21.83s31.57 40.87 49 91.17c0 0 16-23.17 18.67-59.17.04 0-49.96-55.7-96.5-26z" fill="none"/></clipPath></defs><g style="isolation:isolate"><path fill="#878f93" d="M726.36 867.35l37.6-119.68-601 1L0 867.35h726.36"/><path fill="#969fa4" d="M660.01 863.51l24.95-79.84-499.28-7.64-109.99 87.48h584.32"/><path d="M267 824.33v6.64l44 .67-1.33-8c-2.04.03-42.67.69-42.67.69zM166.96 819l2.67 7.33L82.96 829l1.34-6 82.66-4" fill="#fff"/><path fill="#807c78" d="M274.71 802.17l-7.75 22.16 42.67-.66-24.42-23-10.5 1.5M84.3 823l66.54-17.58 13.12.62 3 12.96-82.66 4"/><path fill="#1d2f5d" d="M198.62 370.33l5.01 36 90 394.67-24 3.33-111.33-368-15.34-.66 26 371.33-24-2L90.3 411.67l-1.34-45.34 109.66 4"/><path fill="#141544" d="M126.95 377.67l-4.65 40.66 36.66 237.34 10 151.33-24-2L90.3 411.67l-1.34-45.34 37.99 11.34"/><path d="M201.46 384.67s-33.89 16.45-67.83 13c-33.63-3.41-44.81-14.7-44.81-14.7l-.31-11.07s17.53 11.83 43.78 11.78c41.12-.09 66.33-13.33 66.33-13.33z" fill="#421511"/><path fill="#e2e2e2" d="M146.63 398.67l-1.17-16-26.66-1-.44 15.75 28.27 1.25"/><path d="M123.28 146.33l43.67-4L208 152.97l41.67 48s0 83.33-17.67 113.33l-37.33 10.33 3 28.33 8 7.33-7 10s-46 14.22-82.33 6.33c-27.67-6-37-17.33-37-17.33l7-10.67s11-99 37-202.33" fill="#e5e6e7"/><path fill="#d1d2d3" d="M173.37 287.67l.92 3.66 12.66-3.66 2.67 3.33 5-2.33 22.33-48-32 41.66-11.58 5.34m-8.42-143l-27.33 49h24l-17-3.67 20.33-45.33m14 51.66l24.34 18 8-54.66-8.67 48.33-23.67-11.67"/><path d="M182.87 327.92s3-10.25 49.08-13.58z" fill="#dadbd9"/><path d="M118.62 362.33l9-6.33-11-137 33.19-75.1-26.53 2.43c-26 103.33-37 202.33-37 202.33l-7 10.67s9.33 11.33 37 17.33q2.66.58 5.39 1H127z" fill="#d1d2d3"/><path fill="#d1966b" d="M213.29 133.33L209.96 153l-45.34 53.33 4.34-64 16-36.66 28.33 27.66"/><path fill="#a46c45" d="M207.62 135.67L167.79 158l1.17-15.67 16-36.66 28.33 27.66-5.67 2.34"/><path d="M270.29 23.67s4.33 76-23.67 111c0 0-22.67 11.33-39 1 0 0-13-8.33-25.67-32.67 0 0-11.26-80.28 2.33-83 1.72-.33 86.01 3.67 86.01 3.67z" fill="#d1966b"/><path d="M194.62 31.67s30-3.33 76 5.33l-.17-9s-33.17-7.33-75.83-.33v4z" fill="#a46c45"/><path d="M248.79 67.83s1.33 17.17 3.67 25.5A42 42 0 0 0 239 99.17s10.67-3 16.67-3.33c-.05-.01-6.55-24.51-6.88-28.01z" fill="#996541"/><ellipse cx="219.71" cy="69.17" rx="7.25" ry="8.33" fill="#fff"/><ellipse cx="259.21" cy="72.33" rx="5.42" ry="6.33" fill="#fff"/><path d="M227 69.17a9.09 9.09 0 0 0-1.59-5.21 5.55 5.55 0 0 0-1.16-.13c-3.45 0-6.25 3.17-6.25 7.08a7.22 7.22 0 0 0 3.47 6.34c3.12-.88 5.53-4.16 5.53-8.08zm37.62 3.16a7.08 7.08 0 0 0-.93-3.55 4.46 4.46 0 0 0-2.84-1c-2.69 0-4.86 2.47-4.86 5.51a5.4 5.4 0 0 0 3.81 5.38c2.71-.39 4.82-3.07 4.82-6.34z" fill="#4a3b31"/><path d="M208.29 97.5s16.67 10.5 35 12.83c0 0-9.77 14.27-26.17 11.33-11.12-1.99-8.83-24.16-8.83-24.16z" fill="#5e1a14"/><path d="M235.29 114.17s-16.29-3.62-25-9.5l.5-5.67s13 7.29 26 10.17z" fill="#fff"/><path d="M283.29 25.97l-3.33 8s-22-13-83-6l3 14.33-13.67 25-13.29-.63-4.33-40.33 5.67-5.33-4-2.33L182 12.33v-8l7 4.33 5.67-7 32 2.67.67-4.33L243 5.33l-3 6 14.62-5.36z" fill="#4a3b31"/><path fill="#4a3b31" d="M206.29 47l.67 5.33L229.62 49l-2-8.67L206.29 47m50.33 5.67l3.67-7.34 11.33 9.34-.33 7-14.67-9"/><path d="M183.29 94.67s-11.33 6.33-18-8 3.79-24.05 13-23.67c8 .33 8 4.33 8 4.33z" fill="#d1966b"/><path d="M61 150.33s-18.67 22.67-26 51l7.33 4.67s10.67-18 17-23.67c0 0-16.67 59.67 12 76.33 0 0 31.67-4 24.67 20.33 0 0 5 25.67 16.33 35 0 0-1.67-20.67 10-32s9.27-44.58-17.4-52.58l8.73-42.08s-4.67-7.67-4-14l6.67 2 3.5-15.33L102 149.33z" fill="#6299b0"/><path d="M68.63 153.33s3.67 12.67 14.67 11 18.67-15 18.67-15z" fill="#588aa8"/><circle cx="80.76" cy="119.7" r="37.2" fill="#f1b89a"/><path d="M39.21 231.17c2.25-1 1.5-1.75-3.75-10.25L42.29 206l-7.33-4.67s-3.38 15.34-2.75 23.58c.25 3.26 5.18 7.06 7 6.26z" fill="#f1b89a"/><circle cx="88.17" cy="114.83" r="7.63" fill="#fff"/><circle cx="65.8" cy="103.91" r="6.75" fill="#fff"/><path d="M88.47 115.82a5 5 0 0 0 4.47 4.95 7.61 7.61 0 0 0 2.85-5.94 7.58 7.58 0 0 0-1-3.81 5 5 0 0 0-1.29-.19 5 5 0 0 0-5.03 4.99zm-15.95-12.47a4.07 4.07 0 0 0-3.61-2.21 4.08 4.08 0 0 0-4.08 4.08 4.08 4.08 0 0 0 4.08 4.08 4 4 0 0 0 1.2-.2 6.74 6.74 0 0 0 2.44-5.19c0-.18-.02-.37-.03-.56z" fill="#512e1d"/><path d="M67.63 131.17c-1 .83 2.92 6.83 11.33 7.5 9.48.75 12.5-3.33 12.17-4.5s-4.2 3.26-11.5 2.67c-10.17-.87-10.78-6.69-12-5.67zm-1.5-16s1.67-2.17 3.33-1.42c2.47 1.11 3.83 3.92 2.67 4.58s-3.13-3.83-6-3.16zM92.9 87.6l-.11-.05a37.12 37.12 0 0 1-5.57-3.52A17.46 17.46 0 0 1 84 80.97a5.4 5.4 0 0 1-1.29-3.14 3.42 3.42 0 0 1 .82-2.17 4.23 4.23 0 0 1 1.38-1.19 3 3 0 0 1 1.4-.33 5.56 5.56 0 0 1 2.85 1 15.06 15.06 0 0 1 4 3.89 13 13 0 0 1 1.23 2 3.61 3.61 0 0 1 .4 1.26l1 .19-1-.2.57.11-.32-.47a.61.61 0 0 0-.25.36l.57.11-.32-.47.29.43-.13-.51-.16.08.29.43-.13-.51.05.2v-.21h-.05l.05.2v-.21a1.54 1.54 0 0 1-.45-.13 8.24 8.24 0 0 1-1.75-1.06 13.94 13.94 0 0 1-2.89-3 6.26 6.26 0 0 1-1.3-3.41 3 3 0 0 1 .73-2 6.85 6.85 0 0 1 2.88-1.86 1 1 0 0 0 .57-1.29 1 1 0 0 0-1.29-.57 8.78 8.78 0 0 0-3.7 2.45 5 5 0 0 0-1.18 3.26 7.38 7.38 0 0 0 1 3.55 15 15 0 0 0 3.62 4.17 12.28 12.28 0 0 0 1.94 1.31 6.13 6.13 0 0 0 .9.39 2.9 2.9 0 0 0 .91.17 1.59 1.59 0 0 0 .9-.26 1.42 1.42 0 0 0 .59-.9 2.24 2.24 0 0 0 0-.42 4.19 4.19 0 0 0-.28-1.38 16.43 16.43 0 0 0-3.76-5.5 14 14 0 0 0-3-2.29 7.15 7.15 0 0 0-3.45-1 5 5 0 0 0-2.31.55 6.21 6.21 0 0 0-2 1.73 5.43 5.43 0 0 0-1.25 3.41 7.56 7.56 0 0 0 1.89 4.6 25 25 0 0 0 5.89 5 38.29 38.29 0 0 0 3.49 2 1 1 0 0 0 1.34-.46 1 1 0 0 0-.46-1.34z" fill="#8f613f"/><path d="M109.63 173.33s-6.06 28.42-4.73 56.08l8.73-42.08s-4.63-8.66-4-14z" fill="#588aa8"/><path d="M174.28 291.33l8 32s-60.67-7.67-101.33-29l-22.33-30.36 21-4 6.67 18s39.71 14.36 87.99 13.36z" fill="#d1966b"/><path fill="#a46c45" d="M164.62 291.67l5.33 29.66 12.34 2-8-32-9.67.34"/><path fill="#541d15" d="M103.62 279.67l-5.67 25-8.66-2 5-23.67 9.33.67"/><ellipse cx="-340.88" cy="367.7" rx="5" ry="7.83" transform="rotate(-82.53 -164.08 81.48)" fill="#e2e2e2"/><path fill="#e1a17a" d="M49.29 237.33l30-8.66 5.33 4-2.67 5.66 5 5-3 6.67 3.34 5-5.67 7.33-25 4.34-1.67-5.67-5.66-6.33 2.66-8-6-5.34 3.34-4"/><path fill="#ebebec" d="M442.63 546l11.33-28-5.33-8-12.33 26.33 6.33 9.67"/><path fill="#db9f74" d="M454.63 497.67l4.67 4-5.34 16.33-5.33-8 6-12.33"/><path fill="#db9f74" d="M465.96 492.33l3 10-9.66-.66-4.67-4 11.33-5.34"/><path d="M387 590.17a633.34 633.34 0 0 1 6.25 91.25l49.21-6.25s1-40-21-86z" fill="#e5e6e7"/><path d="M395 592.42s10.5 16.75 18.5 16.75 2.75-18 2.75-18z" fill="#db9f74"/><path d="M426.46 600.33S404 606.17 387 590.17l35.5 1.33z" style="mix-blend-mode:multiply" fill="#e5e6e7"/><path d="M391.71 610.42s-22.31 26.55-23.5 70.25c-.75 27.5 13.25 42 13.25 42l-12.25 4.5-.21-11.5s-11-27.25-5.5-63.5 25-62 25-62z" fill="#db9f74"/><path d="M362.12 680.15a137.62 137.62 0 0 1 1.34-28c5.5-36.25 25-62 25-62l4.17 19.82s-23.23 27-24.42 70.7z" fill="#e5e6e7"/><path d="M369.63 512.67s-4.67-8.33-17-5.67-25.67 14.67-13 52.67-6.63 25.66-6.63 25.66 2.67 14.33 19.33 12.33 19.33-26.33 19.33-26.33z" fill="#412514"/><path d="M440 532.67s9 13 9.67 32.67c0 0-9.67 20.67-27 27.33 0 0-33 10.67-58.33-16.33l-6.67-19 6.21-10.42z" fill="#db9f74"/><path d="M364.29 576.33s-11.08 10-16.08-4.92c-3.61-10.74 10.58-14.75 10.58-14.75l5.5 19.67" fill="#db9f74"/><path d="M418 564.42c-.87-.24 1.75 2.5 4.75 2.25s4-4 4-4a9.18 9.18 0 0 1-8.75 1.75zm-26.29 9.5s2.25 6.25 13.5 7.25 15.79-1.5 15.79-1.5-11.91.73-17.25-.5c-9.75-2.25-12.29-8-12.04-5.25z" fill="#906042"/><circle cx="404.34" cy="555.79" r="8.88" fill="#f5f4f4"/><ellipse cx="434.03" cy="550.1" rx="7.06" ry="7.81" fill="#f5f4f4"/><path d="M441.08 550.11a8.65 8.65 0 0 0-.08-1.38 6.4 6.4 0 0 0-11.13 4.32 6.38 6.38 0 0 0 1.74 4.38 6.44 6.44 0 0 0 2.45.49c3.86 0 7.02-3.5 7.02-7.81zm-39.87 7.26a7.08 7.08 0 0 0 5.63 6.93 8.87 8.87 0 0 0 6.37-8.51 8.82 8.82 0 0 0-1.21-4.43 7 7 0 0 0-3.73-1.07 7.08 7.08 0 0 0-7.06 7.08zm50.42-21.04l-86.79 15.21s-16.84-50.57 34.45-57.21 52.34 42 52.34 42z" fill="#412514"/><path d="M442.46 675.17s-.17 67.16-10.83 133.8l-2.33-.33-1.3-108.67-18 1-25.37 109-2.63-.3s10.17-94.5 11.25-128.25z" fill="#5f809c"/><path fill="#ebebec" d="M426.3 814.67l20.66 1.33-.66-4-19.67-5-.33 7.67m-47 3.33h10l-3.5-9-5.5-.17-1 9.17"/><path d="M431.58 537.67s-3.58-26.59-14.12-41.88" fill="none" stroke="#763a19" stroke-miterlimit="10" stroke-width="2"/><path d="M424 497.33s9.63 9.71 16 39.08m-59.42 10.26a216.35 216.35 0 0 1 .25-44.75" fill="none" stroke="#763a19" stroke-miterlimit="10"/><path d="M565 141.67s7.33-8.33 20-5 20.67 27 9.67 53-40.33 19-51.33-4z" fill="#412514"/><path d="M477.46 90.67s-30.83 62.3-2.17 101.3c5.77 7.84 86.33 35.33 98.67-75.33.04.03-49.96-55.67-96.5-25.97z" fill="#db9f74"/><path d="M473.71 99.67s12.81 3.71 14.75 20c2.17 18.16-14.46 29.5-14.46 29.5l8 6.5c2.71 34.5-6.71 36.3-6.71 36.3s-26.29-29.3-1.58-92.3z" fill="#cc9268"/><path d="M477.46 90.67a143.75 143.75 0 0 0-6.34 15.83 270 270 0 0 1 35.17-21.83s31.57 40.87 49 91.17c0 0 16-23.17 18.67-59.17.04 0-49.96-55.7-96.5-26z" fill="#412514"/><path d="M485 137.17a56 56 0 0 1-14.17 11.25 17.91 17.91 0 0 0 11.17 7.25l-8-6.5a42.21 42.21 0 0 0 11-12z" fill="#9a643e"/><path d="M521.63 124.67l3.5-1.83s4.67 6.17 5.5 17c0-.01-5.5-11.34-9-15.17zm-39.84-17.7l1.33 3.5s-6.33 2.5-10 5.33c.01.03.88-4.13 8.67-8.83z" fill="#412514"/><path fill="#5e1a14" d="M480.71 170.79l.75 9.63 14.63-.75 4.29-4.59-19.67-4.29"/><path d="M477.46 166.04l-.12 4.88s2.56 3 23 4.17l2.93-3.26z" fill="#fff"/><path d="M503.3 171.82s-25.67-12.15-27.84-7.65c-2.86 5.94 27.84 7.65 27.84 7.65zm-7.22 7.85s-16.5-1.5-16.87 1.38 8.44 5.99 16.87-1.38z" fill="#bb3b30"/><ellipse cx="74.79" cy="221.06" rx="10.82" ry="9.21" transform="rotate(-64.41 235.61 -161.07)" fill="#fff"/><ellipse cx="37.9" cy="205.69" rx="8.46" ry="7.2" transform="rotate(-72.85 207.1 -125.75)" fill="#fff"/><path d="M469.89 137.23c2.53.78 5.33-1 6.25-4s-.39-6-2.92-6.8a4.23 4.23 0 0 0-2.42 0 9.24 9.24 0 0 0-3.8 5.1 9.92 9.92 0 0 0-.31 1.36 4.8 4.8 0 0 0 3.2 4.34zm33.4 15.74c3.06 1.46 6.93-.26 8.65-3.85s.64-7.69-2.42-9.15a5.29 5.29 0 0 0-1.64-.47 11.86 11.86 0 0 0-5.4 5.57 12.12 12.12 0 0 0-1.18 6.26 5.35 5.35 0 0 0 1.99 1.64z" fill="#412514"/><path d="M582.63 300.33s8.5 10.17 12 45.83l-9.83 2-9.17-30.5-.84-15.69z" fill="#b4b5b9"/><path fill="#95969d" d="M581.96 339l5.5-29-5.5-12.67-7.66 3.34 1.33 17 6.33 21.33"/><path fill="#db9f74" d="M588.63 364.67l19.67 97.66-7 4 10 22.67.66-25-16-104-7.33 4.67"/><path fill="#e5e6e7" d="M600.46 345.67L601.8 364l-16.67 3-4.67-18.17 20-3.16"/><path fill="#4c3628" d="M539.96 497.17l31 316.5h-21.5l15.5-28-62-287.67 37-.83m39-2l100.5 282-3 12 3.09 17h3.91v-10.5l7 10.5 23.5 1-16-11.5-12.5-20.5-72.5-280.5-34 .5"/><path d="M503 497.97s86.67 2 110-3.33L582.13 362.5l-68.34-12.67S483 412.92 503 497.97z" fill="#d3852f"/><path d="M558.08 232.42s-55.87-1.62-84.62 30.63c0 0-14.33 46.13-15.5 76l10.5 3.5s7.5-44 19.25-58.5l35.75 41.62s-17.5 38-22.33 64.83l54.5 4.67 3.16-37.2 12.33 2.33 3.5 36.83 14.67 1-7.17-35.67-1.33-19.49-3.5-39s11.83-.5 11.83-17.17c.01.03-24.41-34.83-31.04-54.38z" fill="#b4b5b9"/><path d="M539 311.83s12 .83 17-18c0 0 3.46 19.5-17 18z" fill="#95969d"/><path fill="#4c3628" d="M580.8 343l-60.17-10.83-7.54 18.37 69.04 11.96-1.33-19.5"/><ellipse cx="566.26" cy="350.58" rx="8.18" ry="9.74" fill="none" stroke="#695344" stroke-miterlimit="10" stroke-width="3"/><path d="M465.63 356.33s-8 69.67-5 105.67l-3.07-.13-.93.47s-3-60 .33-109.67z" fill="#db9f74"/><path d="M460.63 461.97s14 10.67 13.33 20.33-13.33 22.67-21.33 11.37 4-31.33 4-31.33z" fill="#db9f74"/><path fill="#4c3628" d="M441.96 437.67l1.67 14 24.33 1.33 1.67-12-27.67-3.33"/><path fill="#e5e6e7" d="M502.71 251.67l10.88-2.75 41.62 35.37-6.87-45.25 4.75-1.87-24.63-22.38-15-1.37-10.75 38.25"/><path fill="#db9f74" d="M512.34 199.67l.39 11.13.98 28.37 4.5-.5 34.25 39.62-10.25-44.75-7.25-.37-9.37-36-13.25 2.5"/><path fill="#b87d54" d="M529.71 213.17l-17.25-7.5-.12-6 13.25-2.5 4.12 16"/><path fill="#e5e6e7" d="M449.63 337l3.67 19 17 5 4-16.33-24.67-7.67"/><g clip-path="url(#a)" fill="#713818"><path d="M508.25 80.77l.09.11a330.5 330.5 0 0 1 19.48 27.17c9.84 15.22 21.43 37.79 27.14 56.86l3.25-4c-6.1-20.31-17.81-40.92-28-56.52s-18.84-26.12-18.87-26.16l-3.09 2.54zm18.03 4.44l.31.48c1.52 2.39 8.47 13.4 16.24 27.39s16.37 31 21.17 45.24l1.9-.63c.8 1.48-12.34-37.7-26.37-69.1l-1.83.82c7 15.63 13.56 32.86 18.39 46.18 2.41 6.66 4.39 12.34 5.76 16.36.69 2 1.22 3.6 1.59 4.69l.56 1.67 1.9-.63c-5.21-15.45-14.69-33.81-22.87-48.34S528 84.14 528 84.13l-1.68 1.08z"/></g><path d="M549.63 180.33s5.33 5.33 10 5.33 10.92-2 13.58-14c3.47-15.64-15.58-16.67-15.58-16.67z" fill="#db9f74"/></g></svg>
