<svg id="Layer_1" xmlns="http://www.w3.org/2000/svg" viewBox="0 0 2965.7 1208.3"><style>.st0{opacity:0.5;} .st1{fill:none;stroke:#878F93;stroke-linecap:round;stroke-linejoin:round;} .st2{opacity:0.5;fill:none;stroke:#878F93;stroke-linecap:round;stroke-linejoin:round;} .st3{opacity:0.5;fill:none;stroke:#878F93;stroke-linecap:round;stroke-linejoin:round;enable-background:new ;}</style><g class="st0"><path class="st1" d="M2965.2 297.9h-322l-.5 89.9m0 4.4l-1 182.1 323.5.7"/><path class="st1" d="M2965.2 352.3v-38.7l-306.4 8.2 3 227.2 303.4 4.4"/><path class="st1" d="M2670.1 549l18.5-172.9 276.6-23.8m-286.6 222.1l16 23.7 270.6 4.5"/></g><path class="st2" d="M2792.7 100.1l96.7.6 1.1 123.5-97.2 1.1z"/><path class="st2" d="M2805 114.7h73.2v97.2l-73.2-.6z"/><path class="st2" d="M2793.3 225.3l104.8 8.7-5.4-116.6h-3.1"/><path class="st0 st1" d="M2965.2 790.3h-382.4V672.6h382.4m-350.4-21.3l102.5 3.6s-16.8 16.2-52.2 16.2-50.3-19.8-50.3-19.8zm115.9 7l57-2.5s-9.5 15.1-26.5 15.4c-22.4.2-30.5-12.9-30.5-12.9zm234.5 145.8h-355.7v-13.4m-26.9-84.6h382.6m-382.6 6.7h382.6m-146.8 77.3V713m6.4 77.1V713m140.4 61.5h-140.4m140.4-19.8h-140.4m140.4-21h-140.4"/><path class="st3" d="M2480.4 765h-95V.7m23.5 1.1L2410 765M1685.9.7l2.3 764.3-1159 1.4M1662.5.7l2.2 764.3"/><g class="st0"><path class="st1" d="M1470.4 135.2l2.7 255.7-202.5-.9-.9-256.6z"/><path class="st1" d="M1284.1 145.1l172.8 1.8-.4 230.9-173.3.5z"/></g><g class="st0"><path class="st1" d="M2564.1 261.7l175-.1-1.7-242.5-190-.5 1.2 219.9"/><path class="st1" d="M2559.2 229.5l2.2-198.1h163.2l1.1 217.4-151.2-.2"/><path class="st1" d="M2564.1 261.7l3.1 9.4 196.7 5.2-21.7-251h-4.2"/></g><path class="st3" d="M2531.4 765h51.4"/><path class="st0 st1" d="M2497.2 422.9c-7.8-60.3-25.4-116.9-49.4-121.3s-46.4 39.4-46.4 39.4 19.3-25.7 36.6-17.9c19.6 8.8 41.2 53.8 58.5 125.9m21.7 12s13.1-89.3 63.4-92.7 72.1 38.6 72.1 38.6-29.1-67.6-86.6-57.6-66.5 111.6-66.5 111.6m-4.5-.1s4.1-73.1 16.7-147.2c17.9-105 115.1-114 115.1-114s-88.8 58.1-102.8 152l-7.8-.3 5.6 9.5-5.3 34.6m-27.8 73.5s-42.4 165.4-6.9 306.5c0 0 15.6 5.2 46.9.7 0 0 38.8-167.8-6.6-307.2h5.3l-4.5-7.8-23.6-.2-12.1-.1-3.9 8.1h5.4zm28.4-7.9l-.4 315.7"/><g class="st0"><path class="st1" d="M422.5 319.1h58.1l24.6 193.4H408zM459.4 670l59.2-27.9 4.5 151.9-60.4 33.6z"/><path class="st1" d="M448.7 645.4l14.7.2-2.1-133.1h-12z"/><path class="st1" d="M420.9 656.1l31.2 2.6 65.5-28.6-54.5-1m-14.2-.5l-15.2-.4-41.4 12.5m125.3-10.6l4.9 2.9 8.4 167.4-67.4 43.6-79.7-6.2"/><path class="st1" d="M377.7 821.3l77.9 6.3-5.5-155.4-28.2-2.9m-48.4 118.3v22.7"/><path class="st1" d="M375.9 816.4l53-32-2.8-114.1m5.1.3l5 112.5 17.3.9m-72.1 37.5l52.3-33 20.1 1.1m8.2-5l60.7 3.5m.4 5.9l-60.9-3.6M358.3 667.5l1.6 48.9m9.3-48.5l.8 48.5"/><path class="st1" d="M5 971.3l255.9-127.7 10.4 15.6h9.7l-6-22.3 68.9-34.7 60 121.8 11.5-1.8-49.1-131.1 61.4-29.8-7.8-118.8-145.3-9-3.1-48.4-37.1-4.7-15.1 4.1"/><path class="st1" d="M5 634.6l193.6-52.1 61.1 5.9L5 666.7M5 949c2.2-.7 385.1-185.5 385.1-185.5l-8.9-95.4-102.1-3.7 3 32.8L5 783.6m254.7-195.2l12 111.8"/><path class="st1" d="M.5 889.4l384.4-170.6-112.5-5.2-268 93.1m204.3-86l6 11.9m16.4-18.6l6.7 11.1"/><path class="st1" d="M255.2 828.5l-.7-51.6-117.3-16.2 15.6-5.4 108.1 18.4.1 52.1m261-59.3l-46.1-.1-14.4 1.9m9.6-103.6l4.8 101.7m-35.5-95l4.5 98.3m8.3-.5l-17.5 1.9m-7.3.7l-29.8 3.6m-49-108.2l-.6 49.7m119.9-87.7l-5.3-116.7m-21.3-.3l4.5 116.5m-13.7-116.8l4.8 116.5m-26 6.4L393.1.5m-.8 640.2L381.9.5m-30.1 637.8L365.1.5m57.4 318.6L409.8.5m25.7 0l17 318.6m-19.9 0L417.7.5"/></g><path class="st3" d="M1687.4 354.5h112.5v168.4h-112.5z"/><g class="st0"><path class="st1" d="M1908 215.5l1.4 63.7s70.4 2.8 69.6 1.1-1.4-64.8-1.4-64.8H1908z"/><path class="st1" d="M1914.2 221.6l-.9 52.9 61.2-.3-1.1-53.1z"/><path class="st1" d="M1915.8 279.5l.8 5.9s67.9 4.8 67.9 3.9-3.3-65.4-3.3-65.4l-3.4-.1"/></g><path class="st0 st1" d="M1994.3 1l-9.6 513 69.2-10.5L2033.8 1m9.7 504L2023.9 1m-14.7 508.9L2004.4 1m5.6 0l12.6 507.4M2017.8 1l20.5 504.8"/><g class="st0"><path class="st1" d="M2108.3 401.3h229.1v123.5h-229.1zm104.3-.2l-6.7-57 7.8-1.5-1.5-20.5 12.3-.3-1.5 19.7 10.1 2.6-1.5 56.6"/><path class="st1" d="M2264.7 401.5l-11.9-75.3 6.4-7.4-13.8-49.9 11.2 29-1.5-45.4 8.2 48 4.1-35.7.7 40.2 8.6-9.3-.8 105.4"/></g><path class="st3" d="M2385.4 528.4l-408.9-.3L1804.4 651l581 14.7m-586.1-171.1h185.5m-59.2 0L1685.9.7m1273.9 844.7l-1618-6.7-455.9 369.1"/></svg>
